# xmcd
#
# Track frame offsets:
#      150
#      17480
#      34737
#      47835
#      62837
#      73950
#      89820
#      104842
#      120655
#      134715
#      153550
# 
# Disc length: 2261 seconds
#
# Revision: 2
# Processed by: cddbd v1.4PL0 Copyright (c) Steve Scherf et al.
#
# Submitted via: FreeRIP 1.21
#
DISCID=a908d30b
DTITLE=Barbara Bailey Hutchison - Edge of Wisdom
DYEAR=1994
DGENRE=Folk
TTITLE0=Cold wind blowin'
TTITLE1=Edge of Wisdom
TTITLE2=Is it love
TTITLE3=Follow her heart
TTITLE4=Just let go
TTITLE5=Cold war
TTITLE6=The world is your home
TTITLE7=Close to the heart
TTITLE8=If you stay
TTITLE9=I miss you tonight
TTITLE10=Toward a dream
EXTD=
EXTT0=
EXTT1=
EXTT2=
EXTT3=
EXTT4=
EXTT5=
EXTT6=
EXTT7=
EXTT8=
EXTT9=
EXTT10=
PLAYORDER=
